<?xml version="1.0" encoding="utf-8"?>
<!-- Generator: Adobe Illustrator 24.0.0, SVG Export Plug-In . SVG Version: 6.00 Build 0)  -->
<svg version="1.1" id="Layer_1" xmlns="http://www.w3.org/2000/svg" xmlns:xlink="http://www.w3.org/1999/xlink" x="0px" y="0px"
	 viewBox="0 0 119.6 20.9" style="enable-background:new 0 0 119.6 20.9;" xml:space="preserve">
<g>
	<path d="M13.4,17.9V8.5l-4,9.4H7.6L3.6,8.5v9.4H1.5V5.1h2.9l4.1,9.7l4.1-9.7h2.9v12.8H13.4z"/>
	<path d="M17.9,15.5c0-0.4,0.1-0.7,0.2-1c0.1-0.3,0.3-0.6,0.6-0.8c0.2-0.2,0.5-0.4,0.8-0.5c0.3-0.1,0.7-0.2,1-0.3l2.2-0.3
		c0.3,0,0.4-0.1,0.5-0.2c0.1-0.1,0.1-0.2,0.1-0.4c0-0.4-0.1-0.7-0.4-0.9c-0.3-0.3-0.7-0.4-1.3-0.4c-0.6,0-1,0.2-1.3,0.5
		s-0.5,0.7-0.5,1.1L18,11.7c0-0.4,0.1-0.7,0.3-1.1s0.4-0.7,0.8-0.9s0.7-0.5,1.1-0.6c0.4-0.2,0.9-0.2,1.5-0.2c0.7,0,1.2,0.1,1.7,0.3
		c0.5,0.2,0.9,0.4,1.2,0.7s0.5,0.6,0.6,1c0.1,0.4,0.2,0.8,0.2,1.2v4.4c0,0.4,0,0.7,0,1c0,0.2,0.1,0.4,0.1,0.4h-1.9
		c0,0,0-0.1-0.1-0.3c0-0.2,0-0.5,0-0.8c-0.2,0.3-0.5,0.7-1,0.9s-1,0.4-1.7,0.4c-0.5,0-0.9-0.1-1.2-0.2c-0.4-0.1-0.7-0.3-0.9-0.6
		c-0.3-0.2-0.5-0.5-0.6-0.8C17.9,16.2,17.9,15.9,17.9,15.5z M21.2,16.5c0.3,0,0.6,0,0.8-0.1c0.3-0.1,0.5-0.2,0.7-0.4
		c0.2-0.2,0.4-0.4,0.5-0.7s0.2-0.6,0.2-1.1v-0.4l-2.3,0.3c-0.3,0.1-0.6,0.2-0.8,0.4c-0.2,0.2-0.3,0.5-0.3,0.8c0,0.3,0.1,0.6,0.3,0.8
		C20.5,16.4,20.8,16.5,21.2,16.5z"/>
	<path d="M30.6,9.1h1.8V11h-1.8v4.1c0,0.4,0.1,0.7,0.3,0.8c0.2,0.2,0.5,0.3,0.8,0.3c0.1,0,0.3,0,0.4,0c0.1,0,0.2,0,0.3,0v1.7
		c-0.1,0-0.2,0.1-0.4,0.1C31.8,18,31.5,18,31.1,18c-0.8,0-1.5-0.2-1.9-0.7s-0.7-1.1-0.7-1.9V11h-1.6V9.1h0.5c0.5,0,0.8-0.1,1-0.4
		c0.2-0.3,0.3-0.6,0.3-1V6.5h1.9V9.1z"/>
	<path d="M37.2,9.1H39V11h-1.8v4.1c0,0.4,0.1,0.7,0.3,0.8c0.2,0.2,0.5,0.3,0.8,0.3c0.1,0,0.3,0,0.4,0c0.1,0,0.2,0,0.3,0v1.7
		c-0.1,0-0.2,0.1-0.4,0.1C38.4,18,38.1,18,37.7,18c-0.8,0-1.5-0.2-1.9-0.7s-0.7-1.1-0.7-1.9V11h-1.6V9.1h0.5c0.5,0,0.8-0.1,1-0.4
		c0.2-0.3,0.3-0.6,0.3-1V6.5h1.9V9.1z"/>
	<path d="M42.9,17.9h-2.1v-13h2.1V10c0.3-0.4,0.7-0.7,1.1-0.8s0.9-0.3,1.4-0.3c0.5,0,1,0.1,1.4,0.3c0.4,0.2,0.7,0.4,1,0.7
		c0.3,0.3,0.5,0.7,0.6,1.1c0.1,0.4,0.2,0.9,0.2,1.4v5.5h-2.1v-5.2c0-0.5-0.1-1-0.4-1.4c-0.3-0.4-0.7-0.6-1.4-0.6
		c-0.6,0-1,0.2-1.3,0.6c-0.3,0.4-0.5,0.8-0.5,1.4V17.9z"/>
	<path d="M50.9,6.1c0-0.4,0.1-0.7,0.4-1c0.3-0.3,0.6-0.4,1-0.4c0.4,0,0.7,0.1,1,0.4c0.3,0.3,0.4,0.6,0.4,1c0,0.4-0.1,0.7-0.4,1
		s-0.6,0.4-1,0.4c-0.4,0-0.7-0.1-1-0.4S50.9,6.4,50.9,6.1z M51.2,17.9V9.1h2.1v8.8H51.2z"/>
	<path d="M55.4,15.5c0-0.4,0.1-0.7,0.2-1c0.1-0.3,0.3-0.6,0.6-0.8c0.2-0.2,0.5-0.4,0.8-0.5s0.7-0.2,1-0.3l2.2-0.3
		c0.3,0,0.4-0.1,0.5-0.2s0.1-0.2,0.1-0.4c0-0.4-0.1-0.7-0.4-0.9c-0.3-0.3-0.7-0.4-1.3-0.4c-0.6,0-1,0.2-1.3,0.5s-0.5,0.7-0.5,1.1
		l-1.9-0.4c0-0.4,0.1-0.7,0.3-1.1c0.2-0.3,0.4-0.7,0.8-0.9s0.7-0.5,1.1-0.6c0.4-0.2,0.9-0.2,1.5-0.2C60,8.9,60.5,9,61,9.1
		c0.5,0.2,0.9,0.4,1.2,0.7s0.5,0.6,0.6,1c0.1,0.4,0.2,0.8,0.2,1.2v4.4c0,0.4,0,0.7,0,1c0,0.2,0.1,0.4,0.1,0.4h-1.9
		c0,0,0-0.1-0.1-0.3c0-0.2,0-0.5,0-0.8c-0.2,0.3-0.5,0.7-1,0.9s-1,0.4-1.7,0.4c-0.5,0-0.9-0.1-1.2-0.2c-0.4-0.1-0.7-0.3-0.9-0.6
		c-0.3-0.2-0.5-0.5-0.6-0.8C55.5,16.2,55.4,15.9,55.4,15.5z M58.8,16.5c0.3,0,0.6,0,0.8-0.1s0.5-0.2,0.7-0.4
		c0.2-0.2,0.4-0.4,0.5-0.7s0.2-0.6,0.2-1.1v-0.4l-2.3,0.3c-0.3,0.1-0.6,0.2-0.8,0.4c-0.2,0.2-0.3,0.5-0.3,0.8c0,0.3,0.1,0.6,0.3,0.8
		C58,16.4,58.4,16.5,58.8,16.5z"/>
	<path d="M66.6,15c0,0.4,0.2,0.7,0.5,1s0.7,0.4,1.3,0.4c0.4,0,0.8-0.1,1-0.3c0.2-0.2,0.3-0.4,0.3-0.7c0-0.2-0.1-0.4-0.3-0.6
		c-0.2-0.2-0.4-0.3-0.8-0.4l-1.3-0.3c-0.8-0.2-1.4-0.5-1.8-0.9c-0.4-0.5-0.6-1-0.6-1.6c0-0.4,0.1-0.7,0.3-1.1
		c0.2-0.3,0.4-0.6,0.7-0.9c0.3-0.3,0.6-0.5,1-0.6c0.4-0.1,0.8-0.2,1.3-0.2c0.6,0,1.1,0.1,1.5,0.3s0.8,0.4,1,0.6
		c0.3,0.3,0.5,0.5,0.6,0.8c0.1,0.3,0.2,0.5,0.2,0.7l-1.8,0.5c0-0.1-0.1-0.3-0.1-0.4c-0.1-0.2-0.2-0.3-0.3-0.4
		c-0.1-0.1-0.3-0.2-0.5-0.3c-0.2-0.1-0.4-0.1-0.7-0.1c-0.4,0-0.7,0.1-0.9,0.3C67.1,11,67,11.2,67,11.5c0,0.2,0.1,0.4,0.2,0.6
		c0.2,0.2,0.4,0.3,0.6,0.3l1.3,0.3c0.8,0.2,1.5,0.5,1.9,1c0.4,0.5,0.6,1,0.6,1.7c0,0.3-0.1,0.7-0.2,1s-0.3,0.6-0.6,0.9
		c-0.3,0.3-0.6,0.5-1,0.7c-0.4,0.2-0.9,0.3-1.5,0.3c-0.6,0-1.2-0.1-1.6-0.3c-0.4-0.2-0.8-0.4-1.1-0.7c-0.3-0.3-0.5-0.6-0.6-0.9
		c-0.1-0.3-0.2-0.6-0.3-0.8L66.6,15z"/>
	<path d="M82.3,12.4l-1.7,1.9v3.7h-2.2V5.1h2.2v6.1l5.5-6.1h2.8l-5.2,5.6l5.2,7.1h-2.7L82.3,12.4z"/>
	<path d="M93.7,8.9c0.7,0,1.3,0.1,1.8,0.4c0.6,0.2,1,0.6,1.4,1s0.7,0.9,1,1.5c0.2,0.6,0.3,1.2,0.3,1.9c0,0.7-0.1,1.3-0.3,1.9
		c-0.2,0.6-0.5,1.1-1,1.5c-0.4,0.4-0.9,0.7-1.4,1c-0.6,0.2-1.2,0.4-1.8,0.4c-0.6,0-1.3-0.1-1.8-0.4c-0.6-0.2-1-0.6-1.4-1
		c-0.4-0.4-0.7-0.9-0.9-1.5c-0.2-0.6-0.3-1.2-0.3-1.9c0-0.7,0.1-1.3,0.3-1.9c0.2-0.6,0.5-1.1,0.9-1.5c0.4-0.4,0.9-0.7,1.4-1
		C92.5,9,93.1,8.9,93.7,8.9z M93.7,16.3c0.3,0,0.6-0.1,0.9-0.2s0.6-0.3,0.8-0.5c0.2-0.2,0.4-0.5,0.5-0.9c0.1-0.3,0.2-0.8,0.2-1.2
		s-0.1-0.9-0.2-1.2c-0.1-0.3-0.3-0.6-0.5-0.9c-0.2-0.2-0.5-0.4-0.8-0.5c-0.3-0.1-0.6-0.2-0.9-0.2s-0.6,0.1-0.9,0.2
		c-0.3,0.1-0.6,0.3-0.8,0.5c-0.2,0.2-0.4,0.5-0.5,0.9c-0.1,0.3-0.2,0.7-0.2,1.2s0.1,0.9,0.2,1.2c0.1,0.3,0.3,0.6,0.5,0.9
		c0.2,0.2,0.5,0.4,0.8,0.5C93.1,16.2,93.4,16.3,93.7,16.3z"/>
	<path d="M104.1,10.8c-0.3,0-0.6,0.1-0.9,0.2c-0.3,0.1-0.5,0.3-0.8,0.5c-0.2,0.2-0.4,0.5-0.5,0.8c-0.1,0.3-0.2,0.7-0.2,1.2
		c0,0.4,0.1,0.8,0.2,1.2c0.1,0.3,0.3,0.6,0.5,0.9c0.2,0.2,0.5,0.4,0.8,0.5s0.6,0.2,0.9,0.2c0.3,0,0.6-0.1,0.9-0.2
		c0.3-0.1,0.5-0.2,0.6-0.4s0.3-0.3,0.4-0.5c0.1-0.2,0.2-0.4,0.2-0.5l1.8,0.7c-0.1,0.3-0.3,0.7-0.5,1s-0.5,0.6-0.8,0.9
		c-0.3,0.3-0.7,0.5-1.2,0.7s-1,0.3-1.5,0.3c-0.6,0-1.2-0.1-1.8-0.4c-0.6-0.2-1-0.6-1.4-1c-0.4-0.4-0.7-0.9-1-1.5
		c-0.2-0.6-0.4-1.2-0.4-1.9c0-0.7,0.1-1.3,0.3-1.9c0.2-0.6,0.5-1.1,1-1.5s0.9-0.7,1.4-1s1.1-0.3,1.8-0.3c0.6,0,1.1,0.1,1.6,0.3
		c0.5,0.2,0.9,0.4,1.2,0.7c0.3,0.3,0.6,0.6,0.8,0.9c0.2,0.3,0.4,0.7,0.5,1l-1.9,0.7c0-0.2-0.1-0.4-0.2-0.6c-0.1-0.2-0.2-0.4-0.4-0.5
		c-0.2-0.2-0.4-0.3-0.6-0.4C104.7,10.8,104.4,10.8,104.1,10.8z"/>
	<path d="M112.1,17.9H110v-13h2.1V10c0.3-0.4,0.7-0.7,1.1-0.8s0.9-0.3,1.4-0.3c0.5,0,1,0.1,1.4,0.3c0.4,0.2,0.7,0.4,1,0.7
		c0.3,0.3,0.5,0.7,0.6,1.1c0.1,0.4,0.2,0.9,0.2,1.4v5.5h-2.1v-5.2c0-0.5-0.1-1-0.4-1.4c-0.3-0.4-0.7-0.6-1.4-0.6
		c-0.6,0-1,0.2-1.3,0.6c-0.3,0.4-0.5,0.8-0.5,1.4V17.9z"/>
</g>
</svg>
